<?xml version="1.0" encoding="UTF-8" standalone="no"?>
<!-- Created with Inkscape (http://www.inkscape.org/) -->

<svg
   width="256mm"
   height="256mm"
   viewBox="0 0 256 256"
   version="1.1"
   id="svg5"
   inkscape:version="1.2.1 (9c6d41e410, 2022-07-14)"
   sodipodi:docname="logo.svg"
   xmlns:inkscape="http://www.inkscape.org/namespaces/inkscape"
   xmlns:sodipodi="http://sodipodi.sourceforge.net/DTD/sodipodi-0.dtd"
   xmlns="http://www.w3.org/2000/svg"
   xmlns:svg="http://www.w3.org/2000/svg">
  <sodipodi:namedview
     id="namedview7"
     pagecolor="#ffffff"
     bordercolor="#000000"
     borderopacity="0.25"
     inkscape:showpageshadow="2"
     inkscape:pageopacity="0.0"
     inkscape:pagecheckerboard="0"
     inkscape:deskcolor="#d1d1d1"
     inkscape:document-units="mm"
     showgrid="false"
     inkscape:zoom="0.79998597"
     inkscape:cx="251.25441"
     inkscape:cy="411.88222"
     inkscape:window-width="1920"
     inkscape:window-height="1024"
     inkscape:window-x="0"
     inkscape:window-y="2192"
     inkscape:window-maximized="1"
     inkscape:current-layer="layer4" />
  <defs
     id="defs2">
    <inkscape:path-effect
       effect="skeletal"
       id="path-effect2093"
       is_visible="true"
       lpeversion="1"
       pattern="m 7.0055575,13.45888 c 0,0 18.2913015,-9.1267235 34.6035975,-9.1267235 16.312295,0 34.603604,9.1267255 34.603604,9.1267255 0,0 -18.291309,9.126723 -34.603596,9.126723 -16.312295,0 -34.6036055,-9.126725 -34.6036055,-9.126725 z"
       copytype="single_stretched"
       prop_scale="1.8582331"
       scale_y_rel="false"
       spacing="0"
       normal_offset="0"
       tang_offset="0"
       prop_units="false"
       vertical_pattern="false"
       hide_knot="false"
       fuse_tolerance="0" />
    <inkscape:path-effect
       effect="spiro"
       id="path-effect2089"
       is_visible="true"
       lpeversion="1" />
    <inkscape:path-effect
       effect="skeletal"
       id="path-effect2083"
       is_visible="true"
       lpeversion="1"
       pattern="m 7.0055575,13.45888 c 0,0 18.2913015,-9.1267235 34.6035975,-9.1267235 16.312295,0 34.603604,9.1267255 34.603604,9.1267255 0,0 -18.291309,9.126723 -34.603596,9.126723 -16.312295,0 -34.6036055,-9.126725 -34.6036055,-9.126725 z"
       copytype="single_stretched"
       prop_scale="1.6109634"
       scale_y_rel="false"
       spacing="0"
       normal_offset="0"
       tang_offset="0"
       prop_units="false"
       vertical_pattern="false"
       hide_knot="false"
       fuse_tolerance="0" />
    <inkscape:path-effect
       effect="spiro"
       id="path-effect2079"
       is_visible="true"
       lpeversion="1" />
    <inkscape:path-effect
       effect="skeletal"
       id="path-effect2054"
       is_visible="true"
       lpeversion="1"
       pattern="m 7.0055575,13.45888 c 0,0 18.2913015,-9.1267235 34.6035975,-9.1267235 16.312295,0 34.603604,9.1267255 34.603604,9.1267255 0,0 -18.291309,9.126723 -34.603596,9.126723 -16.312295,0 -34.6036055,-9.126725 -34.6036055,-9.126725 z"
       copytype="single_stretched"
       prop_scale="1.2823693"
       scale_y_rel="false"
       spacing="0"
       normal_offset="0"
       tang_offset="0"
       prop_units="false"
       vertical_pattern="false"
       hide_knot="false"
       fuse_tolerance="0" />
    <inkscape:path-effect
       effect="spiro"
       id="path-effect2039"
       is_visible="true"
       lpeversion="1" />
    <inkscape:path-effect
       effect="skeletal"
       id="path-effect1652"
       is_visible="true"
       lpeversion="1"
       pattern="m 7.0055575,19.110846 c 0,0 18.2913015,-14.7786895 34.6035975,-14.7786895 16.312295,0 34.603604,14.7786935 34.603604,14.7786935 0,0 -18.291309,14.778688 -34.603596,14.778688 -16.312295,0 -34.6036055,-14.778692 -34.6036055,-14.778692 z"
       copytype="single_stretched"
       prop_scale="1"
       scale_y_rel="false"
       spacing="0"
       normal_offset="0"
       tang_offset="0"
       prop_units="false"
       vertical_pattern="false"
       hide_knot="false"
       fuse_tolerance="0" />
    <inkscape:path-effect
       effect="spiro"
       id="path-effect1637"
       is_visible="true"
       lpeversion="1" />
    <inkscape:path-effect
       effect="skeletal"
       id="path-effect1576"
       is_visible="true"
       lpeversion="1"
       pattern="m 7.0055575,19.110846 c 0,0 18.2913015,-14.7786895 34.6035975,-14.7786895 16.312295,0 34.603604,14.7786935 34.603604,14.7786935 0,0 -18.291309,14.778688 -34.603596,14.778688 -16.312295,0 -34.6036055,-14.778692 -34.6036055,-14.778692 z"
       copytype="single_stretched"
       prop_scale="-0.82234455"
       scale_y_rel="false"
       spacing="0"
       normal_offset="0"
       tang_offset="0"
       prop_units="false"
       vertical_pattern="false"
       hide_knot="false"
       fuse_tolerance="0" />
    <inkscape:path-effect
       effect="spiro"
       id="path-effect1561"
       is_visible="true"
       lpeversion="1" />
    <inkscape:path-effect
       effect="skeletal"
       id="path-effect1119"
       is_visible="true"
       lpeversion="1"
       pattern="m 7.0055575,18.552489 c 0,0 18.2913015,-14.2203325 34.6035975,-14.2203325 16.312295,0 34.603604,14.2203355 34.603604,14.2203355 0,0 -18.291309,14.220331 -34.603596,14.220331 -16.312295,0 -34.6036055,-14.220334 -34.6036055,-14.220334 z"
       copytype="single_stretched"
       prop_scale="0.84295115"
       scale_y_rel="false"
       spacing="0"
       normal_offset="0"
       tang_offset="0"
       prop_units="false"
       vertical_pattern="false"
       hide_knot="false"
       fuse_tolerance="0" />
    <inkscape:path-effect
       effect="spiro"
       id="path-effect1104"
       is_visible="true"
       lpeversion="1" />
  </defs>
  <g
     inkscape:label="Bottom Heart"
     inkscape:groupmode="layer"
     id="layer1" />
  <g
     inkscape:groupmode="layer"
     id="layer2"
     inkscape:label="Top Heart" />
  <g
     inkscape:groupmode="layer"
     id="layer3"
     inkscape:label="Diamond" />
  <g
     inkscape:groupmode="layer"
     id="layer4"
     inkscape:label="Flame">
    <text
       xml:space="preserve"
       style="font-style:normal;font-variant:normal;font-weight:normal;font-stretch:normal;font-size:22.5778px;font-family:Inconsolata;-inkscape-font-specification:'Inconsolata, Normal';font-variant-ligatures:normal;font-variant-caps:normal;font-variant-numeric:normal;font-variant-east-asian:normal;fill:#000000;stroke-width:0.264583;image-rendering:auto"
       x="50.321999"
       y="208.24683"
       id="text909"><tspan
         sodipodi:role="line"
         id="tspan907"
         style="font-style:normal;font-variant:normal;font-weight:normal;font-stretch:normal;font-size:22.57780066px;font-family:Inconsolata;-inkscape-font-specification:'Inconsolata, Normal';font-variant-ligatures:normal;font-variant-caps:normal;font-variant-numeric:normal;font-variant-east-asian:normal;stroke-width:0.264583"
         x="50.321999"
         y="208.24683">A Lovely Flame</tspan></text>
    <path
       id="rect961"
       style="stroke-width:0.119706"
       d="m 7.0055575,13.45888 c 0,0 18.2913015,-9.1267235 34.6035975,-9.1267235 16.312295,0 34.603604,9.1267255 34.603604,9.1267255 0,0 -18.291309,9.126723 -34.603596,9.126723 -16.312295,0 -34.6036055,-9.126725 -34.6036055,-9.126725 z"
       sodipodi:nodetypes="cacac" />
    <path
       style="fill:#000000;stroke-width:0.264583"
       d="m 67.862117,63.249104 c 0,0 -1.026391,4.107118 -1.065985,10.334638 -0.04079,6.415137 1.114571,14.173495 4.635591,21.612299 10e-7,0 10e-7,3e-6 10e-7,3e-6 2.949322,6.712796 8.129912,13.270186 12.776136,21.130486 0.685479,1.15967 1.363272,2.35682 2.026124,3.5897 0,0 2e-6,0 2e-6,0 5.873786,10.03874 10.058913,22.02627 9.895822,34.04435 -0.269479,9.30996 -3.497387,16.42094 -6.294774,20.81042 -2.820633,4.42596 -5.165176,6.37031 -5.165176,6.37031 0,0 0.581687,-3.01826 0.525356,-7.77081 -0.0575,-4.85089 -0.891706,-11.00589 -3.576501,-17.16822 -3.113958,-7.65444 -9.561026,-15.06688 -15.296147,-24.25872 0,0 -2e-6,0 -2e-6,0 -0.769052,-1.13758 -1.525583,-2.30571 -2.260419,-3.50925 -5.064253,-8.29437 -9.176517,-18.43987 -10.140511,-29.304509 0,0 2e-6,-5e-6 2e-6,-5e-6 -0.847026,-11.747061 3.032498,-21.531141 6.786339,-27.452364 3.765571,-5.939724 7.154142,-8.428328 7.154142,-8.428328 z"
       id="path2037"
       inkscape:path-effect="#path-effect2039;#path-effect2054"
       inkscape:original-d="m 67.862116,63.249104 c -6.174838,4.507137 -6.57917,46.432656 -5.185438,33.913819 1.551496,-13.935916 12.193248,41.307157 26.197584,57.918507 13.236808,15.70094 7.993127,20.61833 -4.204374,26.05983"
       class="UnoptimicedTransforms"
       transform="translate(3.1947496,-2.2710575)"
       sodipodi:nodetypes="cssc" />
    <path
       style="fill:#000000;stroke-width:0.264583"
       d="m 59.01867,44.298218 c 0,0 -1.857932,3.614628 -2.898376,9.568645 -1.051665,6.018237 -0.957908,13.968391 2.272327,21.143819 2.761448,6.908865 7.835359,12.23167 13.668389,20.361686 2.593844,3.330589 5.257097,6.952742 7.714623,11.058432 2.938381,4.90903 5.624348,10.58585 7.538216,16.93482 0,0 0,0 0,0 3.774016,13.30405 2.225889,26.28246 -1.946311,36.56299 -3.974954,9.76485 -9.910746,16.25374 -14.405601,20.07423 -4.525617,3.84663 -7.648858,5.27014 -7.648858,5.27014 0,0 1.477616,-3.13299 2.917367,-8.37874 1.469822,-5.35532 2.635508,-12.40447 2.027308,-20.26369 -0.622305,-8.19175 -3.074369,-16.33446 -6.943704,-23.59132 -1e-6,0 -2e-6,0 -2e-6,0 -1.788892,-3.6021 -4.1687,-7.22352 -6.701614,-11.31838 -2.097866,-3.39153 -4.337053,-7.1658 -6.453798,-11.32864 -5.347847,-9.63666 -9.036571,-21.129104 -8.847575,-32.792933 0.476341,-12.8188 6.410319,-21.860045 11.132516,-26.773988 4.834305,-5.030603 8.575093,-6.527071 8.575093,-6.527071 z"
       id="path2075"
       inkscape:path-effect="#path-effect2079;#path-effect2083"
       inkscape:original-d="m 59.018669,44.298217 c 2.503725,15.00781 -11.560562,44.525604 -10.16683,32.006763 1.551496,-13.935916 40.125879,35.86522 25.46211,51.89744 -15.477913,16.92235 1.19667,51.62902 -11.000831,57.07052"
       class="UnoptimicedTransforms"
       transform="translate(39.784425,-6.0482672)"
       sodipodi:nodetypes="cssc" />
    <path
       style="fill:#000000;stroke-width:0.264583"
       d="m 50.843982,30.925981 c 0,0 -1.212041,2.887717 -1.728437,7.664212 -0.517633,4.787934 -0.107178,11.253445 2.911527,16.943913 2.783645,5.866963 7.487847,9.877961 13.54408,16.403556 5.511722,5.47225 12.178223,12.187249 17.55391,21.966178 0.438953,0.830409 0.856232,1.668727 1.251514,2.513999 7.544748,16.133751 6.925572,34.069901 0.924628,48.614091 0,0 -5e-6,0 -5e-6,0 -5.634896,13.5525 -14.868966,21.90859 -21.950847,26.43741 -7.109521,4.5465 -11.989256,5.59977 -11.989256,5.59977 0,0 2.816915,-4.17259 5.539446,-11.12215 2.805267,-7.16076 4.951373,-16.31399 4.470482,-26.21511 -10e-7,0 0,0 0,0 -0.461888,-10.36615 -3.641517,-20.29444 -7.70131,-28.923 -0.219261,-0.46601 -0.442153,-0.93056 -0.669039,-1.39323 -2.579792,-5.66412 -7.155406,-12.610989 -11.24006,-21.078566 -4.997432,-9.465753 -7.817057,-20.302157 -7.20049,-30.555039 0.863293,-10.613232 5.884101,-17.840245 9.59505,-21.672659 3.843715,-3.969526 6.688807,-5.183375 6.688807,-5.183375 z"
       id="path2085"
       inkscape:path-effect="#path-effect2089;#path-effect2093"
       inkscape:original-d="m 50.843981,30.92598 c -4.558306,7.751504 -6.711313,33.455113 -7.550384,25.732084 -1.025537,-9.439314 18.545436,15.73435 24.769272,45.001666 5.138904,24.16548 -50.478009,58.23224 -16.701731,75.40935"
       class="UnoptimicedTransforms"
       transform="translate(74.064446,-8.4738723)"
       sodipodi:nodetypes="cssc" />
  </g>
</svg>
