<?xml version="1.0" encoding="UTF-8" standalone="no"?>
<svg
   width="500"
   zoomAndPan="magnify"
   viewBox="0 0 375 374.999991"
   height="500"
   preserveAspectRatio="xMidYMid meet"
   version="1.0"
   id="svg449"
   sodipodi:docname="logo.svg"
   inkscape:version="1.2.1 (9c6d41e410, 2022-07-14)"
   xmlns:inkscape="http://www.inkscape.org/namespaces/inkscape"
   xmlns:sodipodi="http://sodipodi.sourceforge.net/DTD/sodipodi-0.dtd"
   xmlns="http://www.w3.org/2000/svg"
   xmlns:svg="http://www.w3.org/2000/svg">
  <sodipodi:namedview
     id="namedview451"
     pagecolor="#ffffff"
     bordercolor="#000000"
     borderopacity="0.25"
     inkscape:showpageshadow="2"
     inkscape:pageopacity="0.0"
     inkscape:pagecheckerboard="0"
     inkscape:deskcolor="#d1d1d1"
     showgrid="false"
     inkscape:zoom="1"
     inkscape:cx="163"
     inkscape:cy="244.5"
     inkscape:window-width="1920"
     inkscape:window-height="1024"
     inkscape:window-x="0"
     inkscape:window-y="2192"
     inkscape:window-maximized="1"
     inkscape:current-layer="layer1" />
  <defs
     id="defs411">
    <filter
       x="0"
       y="0"
       width="1"
       height="1"
       id="id1">
      <feColorMatrix
         values="0 0 0 0 1 0 0 0 0 1 0 0 0 0 1 0 0 0 1 0"
         color-interpolation-filters="sRGB"
         id="feColorMatrix380" />
    </filter>
    <mask
       id="id2">
      <g
         filter="url(#id1)"
         id="g385">
        <rect
           x="-37.5"
           width="450"
           fill="#000000"
           y="-37.499999"
           height="449.999989"
           fill-opacity="0.4784"
           id="rect383" />
      </g>
    </mask>
    <clipPath
       id="id3">
      <path
         d="M 0.609375 1 L 352.359375 1 L 352.359375 324 L 0.609375 324 Z M 0.609375 1 "
         clip-rule="nonzero"
         id="path388" />
    </clipPath>
    <clipPath
       id="id4">
      <rect
         x="0"
         width="353"
         y="0"
         height="327"
         id="rect391" />
    </clipPath>
    <mask
       id="id5">
      <g
         filter="url(#id1)"
         id="g396">
        <rect
           x="-37.5"
           width="450"
           fill="#000000"
           y="-37.499999"
           height="449.999989"
           fill-opacity="0.5765"
           id="rect394" />
      </g>
    </mask>
    <clipPath
       id="id6">
      <path
         d="M 0.632812 3 L 352.382812 3 L 352.382812 325.921875 L 0.632812 325.921875 Z M 0.632812 3 "
         clip-rule="nonzero"
         id="path399" />
    </clipPath>
    <clipPath
       id="id7">
      <rect
         x="0"
         width="353"
         y="0"
         height="326"
         id="rect402" />
    </clipPath>
    <clipPath
       id="id8">
      <path
         d="M 168 76.929688 L 266 76.929688 L 266 278 L 168 278 Z M 168 76.929688 "
         clip-rule="nonzero"
         id="path405" />
    </clipPath>
    <clipPath
       id="id9">
      <path
         d="M 103 163 L 180 163 L 180 298.179688 L 103 298.179688 Z M 103 163 "
         clip-rule="nonzero"
         id="path408" />
    </clipPath>
  </defs>
  <g
     inkscape:groupmode="layer"
     id="layer1"
     inkscape:label="Layer 1" />
  <g
     mask="url(#id2)"
     id="g427"
     transform="matrix(1.0660981,0,0,1.0439079,-12.376733,-1.1295408)"
     style="display:inline">
    <g
       transform="translate(11)"
       id="g425"
       style="display:inline">
      <g
         clip-path="url(#id4)"
         id="g423">
        <g
           clip-path="url(#id3)"
           id="g421">
          <path
             fill="#fd7486"
             d="m 176.48437,323.66797 -25.5039,-23.11719 C 60.40625,218.36719 0.609375,164.13281 0.609375,97.769531 c 0,-54.234375 42.472656,-96.6875 96.730469,-96.6875 30.601566,0 59.972656,14.238281 79.144526,36.652344 19.16797,-22.414063 48.53907,-36.652344 79.14454,-36.652344 54.25781,0 96.73046,42.453125 96.73046,96.6875 0,66.363279 -59.79687,120.597659 -150.375,202.781249 z m 0,0"
             fill-opacity="1"
             fill-rule="nonzero"
             id="path419"
             style="display:inline" />
        </g>
      </g>
    </g>
  </g>
  <g
     mask="url(#id5)"
     id="g437"
     transform="matrix(1.0660981,0,0,1.0438952,-12.401719,-15.327106)"
     style="display:inline;fill:#ff8c61;fill-opacity:1">
    <g
       transform="translate(11,48)"
       id="g435"
       style="fill:#ff8c61;fill-opacity:1">
      <g
         clip-path="url(#id7)"
         id="g433"
         style="fill:#ff8c61;fill-opacity:1">
        <g
           clip-path="url(#id6)"
           id="g431"
           style="fill:#ff8c61;fill-opacity:1">
          <path
             fill="#ff8c61"
             d="m 176.50781,3.324219 25.5,23.117187 c 90.57813,82.187504 150.375,136.421874 150.375,202.785154 0,54.23438 -42.47265,96.6875 -96.73047,96.6875 -30.60547,0 -59.97656,-14.23828 -79.14453,-36.65234 -19.17187,22.41406 -48.54297,36.65234 -79.144529,36.65234 -54.257812,0 -96.730469,-42.45312 -96.730469,-96.6875 0,-66.36328 59.796876,-120.59765 150.371098,-202.785154 z m 0,0"
             fill-opacity="1"
             fill-rule="nonzero"
             id="path429"
             style="fill:#ff8c61;fill-opacity:1" />
        </g>
      </g>
    </g>
  </g>
  <g
     clip-path="url(#id8)"
     id="g441"
     style="display:none">
    <path
       fill="#fd7486"
       d="m 265.29297,204.875 c -1.95313,-50.72656 -63.4336,-77.18359 -82.07813,-127.957031 0,0 -0.0156,0.01563 -0.0469,0.05078 -19.34375,21.171875 -19.5625,53.48437 -0.65235,75.04297 22.1875,25.29297 47.97657,46.85156 49.22266,79.27344 0.67578,17.5039 -5.03125,33.77343 -15.03516,46.57421 29.42969,-10.97656 49.86329,-39.88281 48.58985,-72.98437"
       fill-opacity="1"
       fill-rule="nonzero"
       id="path439" />
  </g>
  <path
     fill="#f8554e"
     d="M 218.92578,233.9375 C 215,192.95703 164,174.37891 146.55859,134.13281 c 0,0 -0.0117,0.0156 -0.0352,0.0469 -14.6836,18.03125 -13.36328,44.20312 2.9414,60.78125 19.13282,19.45312 41.00782,35.71484 43.51563,61.91015 1.35156,14.14063 -2.51563,27.57813 -10.02344,38.40235 23.32031,-10.2461 38.52734,-34.59375 35.96875,-61.33594"
     fill-opacity="1"
     fill-rule="nonzero"
     id="path443"
     style="display:none" />
  <g
     clip-path="url(#id9)"
     id="g447"
     style="display:none">
    <path
       fill="#ff8c61"
       d="m 121.68359,163.23828 c -63.601559,80.59766 57.28907,87.52344 50.0586,134.92188 0,0 0.0117,-0.0156 0.0273,-0.0391 38.35938,-68.60547 -71.05469,-78.95312 -50.08594,-134.88281"
       fill-opacity="1"
       fill-rule="nonzero"
       id="path445" />
  </g>
</svg>
