<?xml version="1.0" encoding="UTF-8" standalone="no"?>
<svg
   width="500"
   zoomAndPan="magnify"
   viewBox="0 0 375 374.999991"
   height="500"
   preserveAspectRatio="xMidYMid meet"
   version="1.0"
   id="svg449"
   sodipodi:docname="logo_bw_filled.svg"
   inkscape:version="1.2.1 (9c6d41e410, 2022-07-14)"
   xmlns:inkscape="http://www.inkscape.org/namespaces/inkscape"
   xmlns:sodipodi="http://sodipodi.sourceforge.net/DTD/sodipodi-0.dtd"
   xmlns="http://www.w3.org/2000/svg"
   xmlns:svg="http://www.w3.org/2000/svg">
  <sodipodi:namedview
     id="namedview451"
     pagecolor="#ffffff"
     bordercolor="#000000"
     borderopacity="0.25"
     inkscape:showpageshadow="2"
     inkscape:pageopacity="0.0"
     inkscape:pagecheckerboard="0"
     inkscape:deskcolor="#d1d1d1"
     showgrid="false"
     inkscape:zoom="0.815"
     inkscape:cx="88.343558"
     inkscape:cy="323.31288"
     inkscape:window-width="1920"
     inkscape:window-height="1024"
     inkscape:window-x="0"
     inkscape:window-y="2192"
     inkscape:window-maximized="1"
     inkscape:current-layer="svg449" />
  <defs
     id="defs411">
    <linearGradient
       id="linearGradient8842"
       inkscape:swatch="solid">
      <stop
         style="stop-color:#000000;stop-opacity:1;"
         offset="0"
         id="stop8840" />
    </linearGradient>
    <linearGradient
       id="linearGradient3125"
       inkscape:swatch="solid">
      <stop
         style="stop-color:#ff8c61;stop-opacity:1;"
         offset="0"
         id="stop3123" />
    </linearGradient>
    <filter
       x="0"
       y="0"
       width="1"
       height="1"
       id="id1">
      <feColorMatrix
         values="0 0 0 0 1 0 0 0 0 1 0 0 0 0 1 0 0 0 1 0"
         color-interpolation-filters="sRGB"
         id="feColorMatrix380" />
    </filter>
    <mask
       id="id2">
      <g
         filter="url(#id1)"
         id="g385">
        <rect
           x="-37.5"
           width="450"
           fill="#000000"
           y="-37.499999"
           height="449.999989"
           fill-opacity="0.4784"
           id="rect383" />
      </g>
    </mask>
    <clipPath
       id="id3">
      <path
         d="M 0.609375 1 L 352.359375 1 L 352.359375 324 L 0.609375 324 Z M 0.609375 1 "
         clip-rule="nonzero"
         id="path388" />
    </clipPath>
    <clipPath
       id="id4">
      <rect
         x="0"
         width="353"
         y="0"
         height="327"
         id="rect391" />
    </clipPath>
    <mask
       id="id5">
      <g
         filter="url(#id1)"
         id="g396">
        <rect
           x="-37.5"
           width="450"
           fill="#000000"
           y="-37.499999"
           height="449.999989"
           fill-opacity="0.5765"
           id="rect394" />
      </g>
    </mask>
    <clipPath
       id="id6">
      <path
         d="M 0.632812 3 L 352.382812 3 L 352.382812 325.921875 L 0.632812 325.921875 Z M 0.632812 3 "
         clip-rule="nonzero"
         id="path399" />
    </clipPath>
    <clipPath
       id="id7">
      <rect
         x="0"
         width="353"
         y="0"
         height="326"
         id="rect402" />
    </clipPath>
    <clipPath
       id="id8">
      <path
         d="M 168 76.929688 L 266 76.929688 L 266 278 L 168 278 Z M 168 76.929688 "
         clip-rule="nonzero"
         id="path405" />
    </clipPath>
    <clipPath
       id="id9">
      <path
         d="M 103 163 L 180 163 L 180 298.179688 L 103 298.179688 Z M 103 163 "
         clip-rule="nonzero"
         id="path408" />
    </clipPath>
  </defs>
  <g
     id="Hearts"
     style="display:inline">
    <path
       fill="#fd7486"
       d="m 176.48437,323.66797 -25.5039,-23.11719 C 60.40625,218.36719 0.609375,164.13281 0.609375,97.769531 c 0,-54.234375 42.472656,-96.6875 96.730469,-96.6875 30.601566,0 59.972656,14.238281 79.144526,36.652344 19.16797,-22.414063 48.53907,-36.652344 79.14454,-36.652344 54.25781,0 96.73046,42.453125 96.73046,96.6875 0,66.363279 -59.79687,120.597659 -150.375,202.781249 z m 0,0"
       fill-opacity="1"
       fill-rule="nonzero"
       id="Top_Heart"
       style="display:inline;fill:#4d4d4d;fill-opacity:1;stroke:none;stroke-opacity:1;stroke-width:2.84375104;stroke-dasharray:none;stroke-linecap:round;stroke-linejoin:round;fill-rule:nonzero"
       transform="matrix(1.0660981,0,0,1.0439079,-0.6496539,-1.1295408)" />
    <path
       fill="#ff8c61"
       d="m 176.50781,3.324219 25.5,23.117187 c 90.57813,82.187504 150.375,136.421874 150.375,202.785154 0,54.23438 -42.47265,96.6875 -96.73047,96.6875 -30.60547,0 -59.97656,-14.23828 -79.14453,-36.65234 -19.17187,22.41406 -48.54297,36.65234 -79.144529,36.65234 -54.257812,0 -96.730469,-42.45312 -96.730469,-96.6875 0,-66.36328 59.796876,-120.59765 150.371098,-202.785154 z m 0,0"
       fill-opacity="1"
       fill-rule="nonzero"
       id="Bottom_Heart"
       style="display:inline;fill:#1a1a1a;fill-opacity:1;stroke:none;stroke-width:2.84376834;stroke-dasharray:none;stroke-opacity:1;stroke-linecap:round;stroke-linejoin:round;paint-order:normal"
       transform="matrix(1.0660981,0,0,1.0438952,-0.6746399,34.779864)" />
    <path
       id="Heart_Intersection"
       style="display:inline;opacity:1;fill:#333333;fill-opacity:1;fill-rule:nonzero;stroke:none;stroke-opacity:1"
       d="M 176.47887,37.728807 150.98112,60.840019 C 99.763192,107.31486 58.397542,144.8499 32.110236,180.69558 58.397508,216.54154 99.762757,254.07754 150.98112,300.55113 l 25.49775,23.11121 c 0.002,-0.002 0.004,-0.004 0.006,-0.006 0.002,0.002 0.004,0.004 0.005,0.006 l 25.495,-23.11121 C 253.20545,254.07754 294.57082,216.54154 320.8585,180.69558 294.57078,144.8499 253.20501,107.31486 201.98487,60.840019 l -25.495,-23.111212 c -0.002,0.002 -0.004,0.0036 -0.005,0.0056 -0.002,-0.002 -0.004,-0.0036 -0.006,-0.0056 z"
       transform="matrix(1.0660981,0,0,1.0439079,-0.6496539,-1.1295408)" />
  </g>
  <g
     id="Flame"
     style="display:inline;stroke-width:2.99999996;stroke-dasharray:none;stroke:#000000;stroke-opacity:1;fill:none">
    <path
       fill="#fd7486"
       d="m 265.29297,204.875 c -1.95313,-50.72656 -63.4336,-77.18359 -82.07813,-127.957031 0,0 -0.0156,0.01563 -0.0469,0.05078 -19.34375,21.171875 -19.5625,53.484371 -0.65235,75.042971 22.1875,25.29297 47.97657,46.85156 49.22266,79.27344 0.67578,17.5039 -5.03125,33.77343 -15.03516,46.57421 29.42969,-10.97656 49.86329,-39.88281 48.58985,-72.98437"
       fill-opacity="1"
       fill-rule="nonzero"
       id="Right_Flame"
       style="display:inline;fill:#1a1a1a;fill-opacity:1;stroke-width:2.6557675;stroke-dasharray:none;stroke:none;stroke-opacity:1;stroke-linejoin:round;stroke-linecap:round"
       transform="matrix(1.1249196,0,0,1.1343339,-22.02916,-29.608678)" />
    <path
       fill="#f8554e"
       d="m 224.24474,235.75455 c -4.41618,-46.48554 -61.78708,-67.55933 -81.40727,-113.21184 0,0 -0.0132,0.0177 -0.0396,0.0532 -16.51787,20.45346 -15.03262,50.14109 3.30883,68.94623 21.52289,22.06633 46.1305,40.51255 48.95159,70.22678 1.52039,16.0402 -2.82988,31.28281 -11.27557,43.56109 26.23348,-11.6225 43.34016,-39.24087 40.46196,-69.57544"
       fill-opacity="1"
       fill-rule="nonzero"
       id="Middle_Flame"
       style="display:inline;stroke-width:2.99999996;fill:#1a1a1a;stroke:none;stroke-opacity:1;stroke-dasharray:none;stroke-linejoin:round;stroke-linecap:round;fill-opacity:1" />
    <path
       fill="#ff8c61"
       d="m 121.68359,163.23828 c -63.601559,80.59766 57.28907,87.52344 50.0586,134.92188 0,0 0.0117,-0.0156 0.0273,-0.0391 38.35938,-68.60547 -71.05469,-78.95312 -50.08594,-134.88281"
       fill-opacity="1"
       fill-rule="nonzero"
       id="Left_Flame"
       style="display:inline;fill:#1a1a1a;fill-opacity:1;stroke-width:1.32788375;stroke-dasharray:none;stroke:none;stroke-opacity:1;stroke-linejoin:round;stroke-linecap:round;stroke-miterlimit:4"
       transform="matrix(1.1249196,0,0,1.1343339,-22.02916,-29.608678)" />
  </g>
</svg>
